<mxfile host="app.diagrams.net" agent="Mozilla/5.0 (Windows NT 10.0; Win64; x64) AppleWebKit/537.36 (KHTML, like Gecko) Chrome/124.0.0.0 Safari/537.36" version="24.7.17">
  <diagram name="Page-1" id="13e1069c-82ec-6db2-03f1-153e76fe0fe0">
    <mxGraphModel dx="1496" dy="624" grid="1" gridSize="10" guides="1" tooltips="1" connect="1" arrows="1" fold="1" page="1" pageScale="1" pageWidth="1100" pageHeight="850" background="none" math="0" shadow="0">
      <root>
        <mxCell id="0" />
        <mxCell id="1" parent="0" />
        <mxCell id="BxjOmnLy3TFozIaRrLk3-39" value="" style="rounded=0;whiteSpace=wrap;html=1;" vertex="1" parent="1">
          <mxGeometry x="90" width="530" height="650" as="geometry" />
        </mxCell>
        <mxCell id="7baba1c4bc27f4b0-11" value="login" style="html=1;verticalAlign=bottom;endArrow=block;entryX=0;entryY=0;labelBackgroundColor=none;fontFamily=Verdana;fontSize=12;edgeStyle=elbowEdgeStyle;elbow=vertical;" parent="1" edge="1">
          <mxGeometry relative="1" as="geometry">
            <mxPoint x="155" y="167" as="sourcePoint" />
            <mxPoint x="285" y="167" as="targetPoint" />
          </mxGeometry>
        </mxCell>
        <mxCell id="7baba1c4bc27f4b0-14" value="findUser(email,password)" style="html=1;verticalAlign=bottom;endArrow=block;labelBackgroundColor=none;fontFamily=Verdana;fontSize=12;edgeStyle=elbowEdgeStyle;elbow=vertical;entryX=-0.181;entryY=0.206;entryDx=0;entryDy=0;entryPerimeter=0;" parent="1" edge="1">
          <mxGeometry relative="1" as="geometry">
            <mxPoint x="295" y="166.20689655172418" as="sourcePoint" />
            <mxPoint x="537.19" y="165.74" as="targetPoint" />
          </mxGeometry>
        </mxCell>
        <mxCell id="BxjOmnLy3TFozIaRrLk3-1" value="Partner Company" style="shape=umlActor;verticalLabelPosition=bottom;verticalAlign=top;html=1;outlineConnect=0;" vertex="1" parent="1">
          <mxGeometry x="135" y="10" width="30" height="60" as="geometry" />
        </mxCell>
        <mxCell id="BxjOmnLy3TFozIaRrLk3-2" value="" style="swimlane;startSize=0;" vertex="1" parent="1">
          <mxGeometry x="145" y="140" width="10" height="500" as="geometry" />
        </mxCell>
        <mxCell id="BxjOmnLy3TFozIaRrLk3-4" value="" style="swimlane;startSize=0;" vertex="1" parent="1">
          <mxGeometry x="285" y="140" width="10" height="390" as="geometry" />
        </mxCell>
        <mxCell id="BxjOmnLy3TFozIaRrLk3-5" value="" style="ellipse;shape=umlEntity;whiteSpace=wrap;html=1;" vertex="1" parent="1">
          <mxGeometry x="270" y="30" width="40" height="40" as="geometry" />
        </mxCell>
        <mxCell id="BxjOmnLy3TFozIaRrLk3-6" value="" style="endArrow=none;dashed=1;html=1;rounded=0;exitX=0.5;exitY=0;exitDx=0;exitDy=0;" edge="1" parent="1" source="BxjOmnLy3TFozIaRrLk3-4">
          <mxGeometry width="50" height="50" relative="1" as="geometry">
            <mxPoint x="230" y="140" as="sourcePoint" />
            <mxPoint x="290" y="100" as="targetPoint" />
          </mxGeometry>
        </mxCell>
        <mxCell id="BxjOmnLy3TFozIaRrLk3-7" value="" style="endArrow=none;dashed=1;html=1;rounded=0;exitX=0.5;exitY=0;exitDx=0;exitDy=0;" edge="1" parent="1" source="BxjOmnLy3TFozIaRrLk3-2" target="BxjOmnLy3TFozIaRrLk3-1">
          <mxGeometry width="50" height="50" relative="1" as="geometry">
            <mxPoint x="200" y="150" as="sourcePoint" />
            <mxPoint x="200" y="80" as="targetPoint" />
          </mxGeometry>
        </mxCell>
        <mxCell id="BxjOmnLy3TFozIaRrLk3-8" value="" style="swimlane;startSize=0;" vertex="1" parent="1">
          <mxGeometry x="539" y="140" width="10" height="110" as="geometry" />
        </mxCell>
        <mxCell id="BxjOmnLy3TFozIaRrLk3-9" value="" style="swimlane;startSize=0;" vertex="1" parent="1">
          <mxGeometry x="440" y="300" width="10" height="90" as="geometry" />
        </mxCell>
        <mxCell id="BxjOmnLy3TFozIaRrLk3-10" value="doFilterInternal(&lt;div&gt;request,&lt;/div&gt;&lt;div&gt;response,&lt;/div&gt;&lt;div&gt;filterChain&lt;/div&gt;&lt;div&gt;)&lt;/div&gt;" style="html=1;verticalAlign=bottom;endArrow=block;labelBackgroundColor=none;fontFamily=Verdana;fontSize=12;edgeStyle=elbowEdgeStyle;elbow=vertical;" edge="1" parent="1">
          <mxGeometry x="-0.0037" relative="1" as="geometry">
            <mxPoint x="295" y="309.2068965517242" as="sourcePoint" />
            <mxPoint x="440" y="310" as="targetPoint" />
            <mxPoint as="offset" />
          </mxGeometry>
        </mxCell>
        <mxCell id="BxjOmnLy3TFozIaRrLk3-11" value="" style="endArrow=block;dashed=1;endFill=0;endSize=12;html=1;rounded=0;entryX=1.074;entryY=0.617;entryDx=0;entryDy=0;entryPerimeter=0;exitX=-0.233;exitY=0.887;exitDx=0;exitDy=0;exitPerimeter=0;" edge="1" parent="1" source="BxjOmnLy3TFozIaRrLk3-9" target="BxjOmnLy3TFozIaRrLk3-4">
          <mxGeometry width="160" relative="1" as="geometry">
            <mxPoint x="310" y="290" as="sourcePoint" />
            <mxPoint x="470" y="290" as="targetPoint" />
          </mxGeometry>
        </mxCell>
        <mxCell id="BxjOmnLy3TFozIaRrLk3-12" value="request" style="edgeLabel;html=1;align=center;verticalAlign=middle;resizable=0;points=[];" vertex="1" connectable="0" parent="BxjOmnLy3TFozIaRrLk3-11">
          <mxGeometry x="-0.2088" y="-2" relative="1" as="geometry">
            <mxPoint x="-7" y="-9" as="offset" />
          </mxGeometry>
        </mxCell>
        <mxCell id="BxjOmnLy3TFozIaRrLk3-13" value="" style="endArrow=block;dashed=1;endFill=0;endSize=12;html=1;rounded=0;exitX=-0.255;exitY=0.316;exitDx=0;exitDy=0;exitPerimeter=0;" edge="1" parent="1">
          <mxGeometry width="160" relative="1" as="geometry">
            <mxPoint x="536.45" y="220.64" as="sourcePoint" />
            <mxPoint x="300" y="221" as="targetPoint" />
          </mxGeometry>
        </mxCell>
        <mxCell id="BxjOmnLy3TFozIaRrLk3-14" value="user" style="edgeLabel;html=1;align=center;verticalAlign=middle;resizable=0;points=[];" vertex="1" connectable="0" parent="BxjOmnLy3TFozIaRrLk3-13">
          <mxGeometry x="-0.2088" y="-2" relative="1" as="geometry">
            <mxPoint x="-29" y="-9" as="offset" />
          </mxGeometry>
        </mxCell>
        <mxCell id="BxjOmnLy3TFozIaRrLk3-15" value="" style="ellipse;shape=umlEntity;whiteSpace=wrap;html=1;" vertex="1" parent="1">
          <mxGeometry x="425" y="30" width="40" height="40" as="geometry" />
        </mxCell>
        <mxCell id="BxjOmnLy3TFozIaRrLk3-16" value="" style="endArrow=none;dashed=1;html=1;rounded=0;exitX=0.5;exitY=0;exitDx=0;exitDy=0;entryX=0.471;entryY=1.071;entryDx=0;entryDy=0;entryPerimeter=0;" edge="1" parent="1" source="BxjOmnLy3TFozIaRrLk3-9" target="BxjOmnLy3TFozIaRrLk3-20">
          <mxGeometry width="50" height="50" relative="1" as="geometry">
            <mxPoint x="443" y="150" as="sourcePoint" />
            <mxPoint x="445" y="110" as="targetPoint" />
          </mxGeometry>
        </mxCell>
        <mxCell id="BxjOmnLy3TFozIaRrLk3-17" value="" style="shape=umlBoundary;whiteSpace=wrap;html=1;" vertex="1" parent="1">
          <mxGeometry x="510" y="30" width="50" height="40" as="geometry" />
        </mxCell>
        <mxCell id="BxjOmnLy3TFozIaRrLk3-18" value="&lt;span style=&quot;font-weight: 400; text-wrap: wrap;&quot;&gt;Database&lt;/span&gt;" style="text;align=center;fontStyle=1;verticalAlign=middle;spacingLeft=3;spacingRight=3;strokeColor=none;rotatable=0;points=[[0,0.5],[1,0.5]];portConstraint=eastwest;html=1;" vertex="1" parent="1">
          <mxGeometry x="504" y="70" width="80" height="26" as="geometry" />
        </mxCell>
        <mxCell id="BxjOmnLy3TFozIaRrLk3-19" value="&lt;span style=&quot;font-weight: 400; text-wrap: wrap;&quot;&gt;Screen&amp;nbsp;&lt;/span&gt;&lt;span style=&quot;font-weight: 400; text-wrap: wrap; background-color: initial;&quot;&gt;system&lt;/span&gt;" style="text;align=center;fontStyle=1;verticalAlign=middle;spacingLeft=3;spacingRight=3;strokeColor=none;rotatable=0;points=[[0,0.5],[1,0.5]];portConstraint=eastwest;html=1;" vertex="1" parent="1">
          <mxGeometry x="250" y="70" width="80" height="26" as="geometry" />
        </mxCell>
        <mxCell id="BxjOmnLy3TFozIaRrLk3-20" value="&lt;span style=&quot;font-weight: 400; text-wrap: wrap;&quot;&gt;Authenticator&lt;/span&gt;" style="text;align=center;fontStyle=1;verticalAlign=middle;spacingLeft=3;spacingRight=3;strokeColor=none;rotatable=0;points=[[0,0.5],[1,0.5]];portConstraint=eastwest;html=1;" vertex="1" parent="1">
          <mxGeometry x="405" y="70" width="80" height="26" as="geometry" />
        </mxCell>
        <mxCell id="BxjOmnLy3TFozIaRrLk3-21" value="" style="endArrow=none;dashed=1;html=1;rounded=0;exitX=0.5;exitY=0;exitDx=0;exitDy=0;" edge="1" parent="1" source="BxjOmnLy3TFozIaRrLk3-8">
          <mxGeometry width="50" height="50" relative="1" as="geometry">
            <mxPoint x="543.66" y="136" as="sourcePoint" />
            <mxPoint x="543.66" y="96" as="targetPoint" />
          </mxGeometry>
        </mxCell>
        <mxCell id="BxjOmnLy3TFozIaRrLk3-24" value="" style="endArrow=classic;html=1;rounded=0;entryX=1.034;entryY=0.32;entryDx=0;entryDy=0;entryPerimeter=0;exitX=-0.169;exitY=0.415;exitDx=0;exitDy=0;exitPerimeter=0;" edge="1" parent="1" source="BxjOmnLy3TFozIaRrLk3-4" target="BxjOmnLy3TFozIaRrLk3-2">
          <mxGeometry width="50" height="50" relative="1" as="geometry">
            <mxPoint x="540" y="340" as="sourcePoint" />
            <mxPoint x="590" y="290" as="targetPoint" />
          </mxGeometry>
        </mxCell>
        <mxCell id="BxjOmnLy3TFozIaRrLk3-25" value="Login Sucess" style="edgeLabel;html=1;align=center;verticalAlign=middle;resizable=0;points=[];" vertex="1" connectable="0" parent="BxjOmnLy3TFozIaRrLk3-24">
          <mxGeometry x="-0.0343" y="-2" relative="1" as="geometry">
            <mxPoint y="-9" as="offset" />
          </mxGeometry>
        </mxCell>
        <mxCell id="BxjOmnLy3TFozIaRrLk3-28" value="" style="endArrow=classic;html=1;rounded=0;entryX=-0.169;entryY=0.79;entryDx=0;entryDy=0;entryPerimeter=0;exitX=1.187;exitY=0.616;exitDx=0;exitDy=0;exitPerimeter=0;" edge="1" parent="1" source="BxjOmnLy3TFozIaRrLk3-2" target="BxjOmnLy3TFozIaRrLk3-4">
          <mxGeometry width="50" height="50" relative="1" as="geometry">
            <mxPoint x="200" y="450" as="sourcePoint" />
            <mxPoint x="250" y="400" as="targetPoint" />
          </mxGeometry>
        </mxCell>
        <mxCell id="BxjOmnLy3TFozIaRrLk3-29" value="New Vantage" style="edgeLabel;html=1;align=center;verticalAlign=middle;resizable=0;points=[];" vertex="1" connectable="0" parent="BxjOmnLy3TFozIaRrLk3-28">
          <mxGeometry x="-0.3042" y="2" relative="1" as="geometry">
            <mxPoint x="9" y="-6" as="offset" />
          </mxGeometry>
        </mxCell>
        <mxCell id="BxjOmnLy3TFozIaRrLk3-30" value="" style="endArrow=classic;html=1;rounded=0;exitX=1.187;exitY=0.616;exitDx=0;exitDy=0;exitPerimeter=0;entryX=0.042;entryY=0.202;entryDx=0;entryDy=0;entryPerimeter=0;" edge="1" parent="1" target="BxjOmnLy3TFozIaRrLk3-36">
          <mxGeometry width="50" height="50" relative="1" as="geometry">
            <mxPoint x="295" y="445" as="sourcePoint" />
            <mxPoint x="539" y="448" as="targetPoint" />
          </mxGeometry>
        </mxCell>
        <mxCell id="BxjOmnLy3TFozIaRrLk3-31" value="registerVantage(VantageDTO)" style="edgeLabel;html=1;align=center;verticalAlign=middle;resizable=0;points=[];" vertex="1" connectable="0" parent="BxjOmnLy3TFozIaRrLk3-30">
          <mxGeometry x="-0.3042" y="2" relative="1" as="geometry">
            <mxPoint x="9" y="-6" as="offset" />
          </mxGeometry>
        </mxCell>
        <mxCell id="BxjOmnLy3TFozIaRrLk3-32" value="" style="endArrow=classic;html=1;rounded=0;entryX=1.009;entryY=0.873;entryDx=0;entryDy=0;entryPerimeter=0;" edge="1" parent="1" target="BxjOmnLy3TFozIaRrLk3-4">
          <mxGeometry width="50" height="50" relative="1" as="geometry">
            <mxPoint x="540" y="480" as="sourcePoint" />
            <mxPoint x="300" y="480" as="targetPoint" />
          </mxGeometry>
        </mxCell>
        <mxCell id="BxjOmnLy3TFozIaRrLk3-33" value="Vantage" style="edgeLabel;html=1;align=center;verticalAlign=middle;resizable=0;points=[];" vertex="1" connectable="0" parent="BxjOmnLy3TFozIaRrLk3-32">
          <mxGeometry x="-0.1384" y="-2" relative="1" as="geometry">
            <mxPoint y="-7" as="offset" />
          </mxGeometry>
        </mxCell>
        <mxCell id="BxjOmnLy3TFozIaRrLk3-34" value="" style="endArrow=block;dashed=1;endFill=0;endSize=12;html=1;rounded=0;entryX=1.034;entryY=0.717;entryDx=0;entryDy=0;entryPerimeter=0;exitX=-0.016;exitY=0.918;exitDx=0;exitDy=0;exitPerimeter=0;" edge="1" parent="1" source="BxjOmnLy3TFozIaRrLk3-4" target="BxjOmnLy3TFozIaRrLk3-2">
          <mxGeometry width="160" relative="1" as="geometry">
            <mxPoint x="380" y="460" as="sourcePoint" />
            <mxPoint x="540" y="460" as="targetPoint" />
          </mxGeometry>
        </mxCell>
        <mxCell id="BxjOmnLy3TFozIaRrLk3-35" value="Vantage created" style="edgeLabel;html=1;align=center;verticalAlign=middle;resizable=0;points=[];" vertex="1" connectable="0" parent="BxjOmnLy3TFozIaRrLk3-34">
          <mxGeometry x="0.2864" y="1" relative="1" as="geometry">
            <mxPoint x="20" y="-10" as="offset" />
          </mxGeometry>
        </mxCell>
        <mxCell id="BxjOmnLy3TFozIaRrLk3-36" value="" style="swimlane;startSize=0;" vertex="1" parent="1">
          <mxGeometry x="540" y="428" width="10" height="82" as="geometry" />
        </mxCell>
      </root>
    </mxGraphModel>
  </diagram>
</mxfile>
